<?xml version="1.0" encoding="utf-8"?>
<!-- Generator: Adobe Illustrator 15.0.0, SVG Export Plug-In . SVG Version: 6.00 Build 0)  -->
<!DOCTYPE svg PUBLIC "-//W3C//DTD SVG 1.1//EN" "http://www.w3.org/Graphics/SVG/1.1/DTD/svg11.dtd">
<svg version="1.1" id="Layer_1" xmlns="http://www.w3.org/2000/svg" xmlns:xlink="http://www.w3.org/1999/xlink" x="0px" y="0px"
	 width="227.193px" height="159.479px" viewBox="0 0 227.193 159.479" enable-background="new 0 0 227.193 159.479"
	 xml:space="preserve">
<path fill="#1EA0CA" d="M190.058,48.044L142.015,0l-10.982,10.981L120.05,0l-10.981,10.981L98.088,0L50.045,48.044l48.043,48.044
	l10.981-10.981l10.981,10.981l10.982-10.981l10.982,10.981L190.058,48.044z M120.05,14.642l3.662,3.66l-3.662,3.662l-3.66-3.662
	L120.05,14.642z M108.612,48.044l11.438-11.439l11.439,11.439L120.05,59.482L108.612,48.044z M112.73,66.804l-3.661,3.66
	l-22.421-22.42l22.421-22.422l3.661,3.662L93.97,48.044L112.73,66.804z M146.132,48.044l-18.76-18.76l3.66-3.662l22.422,22.422
	l-22.422,22.42l-3.66-3.66L146.132,48.044z M98.088,81.445L64.687,48.044l33.401-33.402l3.661,3.66L72.007,48.044l29.742,29.742
	L98.088,81.445z M120.05,81.445l-3.66-3.659l3.66-3.662l3.662,3.662L120.05,81.445z M168.095,48.044l-29.742-29.742l3.662-3.66
	l33.4,33.402l-33.4,33.401l-3.662-3.659L168.095,48.044z"/>
<linearGradient id="SVGID_1_" gradientUnits="userSpaceOnUse" x1="556.3003" y1="-2402.8848" x2="556.3003" y2="-2409.2886" gradientTransform="matrix(0.5294 0.5294 -0.7071 0.7071 -1892.7065 1431.0618)">
	<stop  offset="0" style="stop-color:#231F20;stop-opacity:0"/>
	<stop  offset="0.9104" style="stop-color:#231F20;stop-opacity:0.9104"/>
	<stop  offset="1" style="stop-color:#231F20"/>
</linearGradient>
<polygon opacity="0.35" fill="url(#SVGID_1_)" points="104.536,30.146 97.221,22.83 101.749,18.302 109.063,25.618 "/>
<linearGradient id="SVGID_2_" gradientUnits="userSpaceOnUse" x1="-6684.207" y1="1122.5518" x2="-6684.207" y2="1116.1475" gradientTransform="matrix(-0.5297 -0.5297 0.7071 -0.7071 -4217.1221 -2736.7551)">
	<stop  offset="0" style="stop-color:#231F20;stop-opacity:0"/>
	<stop  offset="0.9104" style="stop-color:#231F20;stop-opacity:0.9104"/>
	<stop  offset="1" style="stop-color:#231F20"/>
</linearGradient>
<polygon opacity="0.35" fill="url(#SVGID_2_)" points="113.599,6.454 120.917,13.774 116.39,18.302 109.07,10.981 "/>
<linearGradient id="SVGID_3_" gradientUnits="userSpaceOnUse" x1="575.811" y1="-2418.4136" x2="575.811" y2="-2424.8193" gradientTransform="matrix(0.5295 0.5295 -0.7071 0.7071 -1892.1107 1431.6592)">
	<stop  offset="0" style="stop-color:#231F20;stop-opacity:0"/>
	<stop  offset="0.9104" style="stop-color:#231F20;stop-opacity:0.9104"/>
	<stop  offset="1" style="stop-color:#231F20"/>
</linearGradient>
<polygon opacity="0.35" fill="url(#SVGID_3_)" points="126.5,30.147 119.183,22.831 123.712,18.302 131.029,25.619 "/>
<linearGradient id="SVGID_4_" gradientUnits="userSpaceOnUse" x1="-6707.0923" y1="1138.0801" x2="-6707.0923" y2="1131.6777" gradientTransform="matrix(-0.5295 -0.5295 0.7071 -0.7071 -4216.9229 -2736.5576)">
	<stop  offset="0" style="stop-color:#231F20;stop-opacity:0"/>
	<stop  offset="0.9104" style="stop-color:#231F20;stop-opacity:0.9104"/>
	<stop  offset="1" style="stop-color:#231F20"/>
</linearGradient>
<polygon opacity="0.35" fill="url(#SVGID_4_)" points="135.56,6.453 142.876,13.771 138.349,18.298 131.033,10.981 "/>
<linearGradient id="SVGID_5_" gradientUnits="userSpaceOnUse" x1="-5405.7964" y1="-3301.8047" x2="-5405.7964" y2="-3308.2109" gradientTransform="matrix(-0.5296 0.5296 -0.7071 -0.7071 -5085.752 549.2966)">
	<stop  offset="0" style="stop-color:#231F20;stop-opacity:0"/>
	<stop  offset="0.9104" style="stop-color:#231F20;stop-opacity:0.9104"/>
	<stop  offset="1" style="stop-color:#231F20"/>
</linearGradient>
<polygon opacity="0.35" fill="url(#SVGID_5_)" points="108.205,24.753 115.523,17.435 120.05,21.964 112.733,29.282 "/>
<linearGradient id="SVGID_6_" gradientUnits="userSpaceOnUse" x1="-763.6631" y1="2021.4766" x2="-763.6631" y2="2015.0713" gradientTransform="matrix(0.532 -0.532 0.7071 0.7071 -894.8608 -1798.1964)">
	<stop  offset="0" style="stop-color:#231F20;stop-opacity:0"/>
	<stop  offset="0.9104" style="stop-color:#231F20;stop-opacity:0.9104"/>
	<stop  offset="1" style="stop-color:#231F20"/>
</linearGradient>
<polygon opacity="0.35" fill="url(#SVGID_6_)" points="131.931,33.781 124.58,41.134 120.05,36.604 127.402,29.253 "/>
<linearGradient id="SVGID_7_" gradientUnits="userSpaceOnUse" x1="-5364.7109" y1="-3328.3359" x2="-5364.7109" y2="-3334.7402" gradientTransform="matrix(-0.53 0.53 -0.7071 -0.7071 -5084.9028 548.4461)">
	<stop  offset="0" style="stop-color:#231F20;stop-opacity:0"/>
	<stop  offset="0.9104" style="stop-color:#231F20;stop-opacity:0.9104"/>
	<stop  offset="1" style="stop-color:#231F20"/>
</linearGradient>
<polygon opacity="0.35" fill="url(#SVGID_7_)" points="108.2,62.278 115.523,54.954 120.05,59.482 112.728,66.806 "/>
<linearGradient id="SVGID_8_" gradientUnits="userSpaceOnUse" x1="-757.7969" y1="2048.0049" x2="-757.7969" y2="2041.6006" gradientTransform="matrix(0.5294 -0.5294 0.7071 0.7071 -918.7238 -1774.333)">
	<stop  offset="0" style="stop-color:#231F20;stop-opacity:0"/>
	<stop  offset="0.9104" style="stop-color:#231F20;stop-opacity:0.9104"/>
	<stop  offset="1" style="stop-color:#231F20"/>
</linearGradient>
<polygon opacity="0.35" fill="url(#SVGID_8_)" points="131.9,71.331 124.585,78.646 120.056,74.118 127.373,66.804 "/>
<linearGradient id="SVGID_9_" gradientUnits="userSpaceOnUse" x1="672.4546" y1="-2564.4648" x2="672.4546" y2="-2570.8687" gradientTransform="matrix(0.5295 0.5295 -0.7071 0.7071 -2068.519 1543.2412)">
	<stop  offset="0" style="stop-color:#231F20;stop-opacity:0"/>
	<stop  offset="0.9104" style="stop-color:#231F20;stop-opacity:0.9104"/>
	<stop  offset="1" style="stop-color:#231F20"/>
</linearGradient>
<polygon opacity="0.35" fill="url(#SVGID_9_)" points="104.539,89.63 97.221,82.313 101.749,77.786 109.066,85.103 "/>
<linearGradient id="SVGID_10_" gradientUnits="userSpaceOnUse" x1="-6800.7417" y1="1284.1318" x2="-6800.7417" y2="1277.7266" gradientTransform="matrix(-0.5298 -0.5298 0.7071 -0.7071 -4393.7847 -2625.4268)">
	<stop  offset="0" style="stop-color:#231F20;stop-opacity:0"/>
	<stop  offset="0.9104" style="stop-color:#231F20;stop-opacity:0.9104"/>
	<stop  offset="1" style="stop-color:#231F20"/>
</linearGradient>
<polygon opacity="0.35" fill="url(#SVGID_10_)" points="113.597,65.937 120.917,73.257 116.39,77.786 109.069,70.465 "/>
<linearGradient id="SVGID_11_" gradientUnits="userSpaceOnUse" x1="690.1626" y1="-2579.9951" x2="690.1626" y2="-2586.3989" gradientTransform="matrix(0.5298 0.5298 -0.7071 0.7071 -2067.1187 1544.6405)">
	<stop  offset="0" style="stop-color:#231F20;stop-opacity:0"/>
	<stop  offset="0.9104" style="stop-color:#231F20;stop-opacity:0.9104"/>
	<stop  offset="1" style="stop-color:#231F20"/>
</linearGradient>
<polygon opacity="0.35" fill="url(#SVGID_11_)" points="126.505,89.635 119.183,82.313 123.712,77.786 131.033,85.106 "/>
<linearGradient id="SVGID_12_" gradientUnits="userSpaceOnUse" x1="-6822.166" y1="1299.6641" x2="-6822.166" y2="1293.2578" gradientTransform="matrix(-0.5297 -0.5297 0.7071 -0.7071 -4393.4702 -2625.1125)">
	<stop  offset="0" style="stop-color:#231F20;stop-opacity:0"/>
	<stop  offset="0.9104" style="stop-color:#231F20;stop-opacity:0.9104"/>
	<stop  offset="1" style="stop-color:#231F20"/>
</linearGradient>
<polygon opacity="0.35" fill="url(#SVGID_12_)" points="135.562,65.938 142.882,73.257 138.353,77.786 131.033,70.466 "/>
<g>
	<path fill="#414042" d="M0,113.288h22.371v6.58h-7.566v39.479H7.567v-39.479H0V113.288z"/>
	<path fill="#414042" d="M21.58,152.767c0.79,0.066,1.711,0.066,2.501,0.066c2.303,0,4.145-0.855,4.145-4.408v-35.137h7.238v34.611
		c0,9.211-4.935,11.58-10.396,11.58c-1.315,0-2.303,0-3.487-0.133V152.767z"/>
	<path fill="#414042" d="M47.636,132.7h9.936v6.58h-9.936v13.486h12.502v6.58H40.398v-46.059h19.739v6.58H47.636V132.7z"/>
	<path fill="#414042" d="M79.745,159.347c-0.396-1.184-0.658-1.908-0.658-5.658v-7.238c0-4.275-1.448-5.855-4.737-5.855h-2.501
		v18.752h-7.237v-46.059h10.922c7.501,0,10.726,3.488,10.726,10.595v3.618c0,4.738-1.514,7.83-4.738,9.344
		c3.619,1.514,4.804,5,4.804,9.803v7.107c0,2.236,0.065,3.881,0.79,5.592H79.745z M71.849,119.868v14.148h2.829
		c2.698,0,4.343-1.186,4.343-4.869v-4.541c0-3.29-1.119-4.738-3.685-4.738H71.849z"/>
	<path fill="#414042" d="M100.536,140.989l-2.237,4.211v14.146h-7.237v-46.059h7.237v20.07l9.475-20.07h7.238l-10.067,20.529
		l10.067,25.529h-7.435L100.536,140.989z"/>
	<path fill="#414042" d="M126.525,152.767c0.789,0.066,1.711,0.066,2.5,0.066c2.303,0,4.145-0.855,4.145-4.408v-35.137h7.238v34.611
		c0,9.211-4.936,11.58-10.396,11.58c-1.316,0-2.303,0-3.486-0.133V152.767z"/>
	<path fill="#414042" d="M145.341,113.288h7.238v46.059h-7.238V113.288z"/>
	<path fill="#414042" d="M179.292,124.672v5.987c0,7.369-3.553,11.385-10.791,11.385h-3.422v17.303h-7.236v-46.059h10.658
		C175.74,113.288,179.292,117.302,179.292,124.672z M165.08,119.868v15.596h3.422c2.303,0,3.553-1.053,3.553-4.344v-6.908
		c0-3.291-1.25-4.344-3.553-4.344H165.08z"/>
	<path fill="#414042" d="M204.097,124.672v5.987c0,7.369-3.553,11.385-10.791,11.385h-3.42v17.303h-7.238v-46.059h10.658
		C200.544,113.288,204.097,117.302,204.097,124.672z M189.886,119.868v15.596h3.42c2.303,0,3.553-1.053,3.553-4.344v-6.908
		c0-3.291-1.25-4.344-3.553-4.344H189.886z"/>
	<path fill="#414042" d="M214.691,132.7h9.936v6.58h-9.936v13.486h12.502v6.58h-19.74v-46.059h19.74v6.58h-12.502V132.7z"/>
</g>
</svg>
